<svg width="580" viewBox="0 0 130 165" xmlns="http://www.w3.org/2000/svg"
						class="blob-background second-card" preserveAspectRatio="xMidYMid slice">
						<path fill="#242424" id="second-start"
							d="M32.1,-53.8C35.8,-53.5,29,-33.2,28.6,-20.9C28.2,-8.6,34.1,-4.3,39.9,3.3C45.7,11,51.4,21.9,47.8,27.3C44.2,32.7,31.4,32.4,21.9,29.4C12.4,26.3,6.2,20.5,-0.5,21.4C-7.2,22.3,-14.4,29.8,-22.6,32.1C-30.8,34.4,-40.1,31.4,-45.9,25.2C-51.7,19,-54.1,9.5,-56.6,-1.4C-59,-12.3,-61.5,-24.6,-58.1,-35C-54.6,-45.3,-45.2,-53.6,-34.5,-49.8C-23.8,-46,-11.9,-30.1,1.2,-32.1C14.2,-34.1,28.4,-54,32.1,-53.8Z"
							transform="translate(70 75)" />
						<path fill="#242424" id="second-mid" style="display: none;"
							d="M38.4,-68.6C50.5,-59.5,61.5,-50.7,69.8,-39.3C78,-27.9,83.3,-14,79.4,-2.3C75.4,9.4,62,18.7,53.9,30.4C45.9,42,43.1,56,35,65.3C26.9,74.6,13.5,79.3,-0.4,80C-14.3,80.8,-28.6,77.6,-42.3,71.5C-56.1,65.4,-69.2,56.5,-74,44.1C-78.7,31.7,-75.1,15.8,-73.7,0.8C-72.3,-14.2,-73.1,-28.4,-65.9,-36.6C-58.7,-44.7,-43.5,-46.8,-31.1,-55.9C-18.8,-64.9,-9.4,-80.9,1.9,-84.1C13.1,-87.3,26.3,-77.8,38.4,-68.6Z"
							transform="translate(70 75)" />

						<path fill="#242424" id="second-end"
							d="M42.1,-71.3C51.6,-67.4,54.2,-50.1,55.4,-36C56.6,-21.9,56.5,-10.9,56,-0.3C55.6,10.4,54.8,20.8,52.2,32.5C49.5,44.1,44.9,57,35.9,67.5C26.9,78,13.4,86.1,-1.4,88.6C-16.3,91,-32.6,87.8,-45.8,79.8C-59,71.7,-69.1,58.7,-69.9,44.6C-70.7,30.5,-62.2,15.2,-60.4,1C-58.6,-13.1,-63.4,-26.3,-61.4,-38.4C-59.5,-50.4,-50.7,-61.5,-39.3,-64.2C-27.9,-67,-14,-61.6,1.2,-63.6C16.3,-65.6,32.6,-75.2,42.1,-71.3Z"
							transform="translate(70 75)" />
					</svg>